<svg width="64" height="64" viewBox="0 0 64 64" fill="none" xmlns="http://www.w3.org/2000/svg">
<path d="M3.55469 45.4655C15.0794 45.4655 26.6041 45.4655 38.1178 45.4545C38.585 45.4545 38.8408 45.5872 39.0744 45.9853C41.0546 49.4249 43.0458 52.8645 45.0482 56.293C45.1372 56.4479 45.215 56.6027 45.3485 56.846C45.0927 56.8571 44.8924 56.8792 44.7033 56.8792C34.4356 56.8792 24.1791 56.8792 13.9114 56.8903C11.3973 56.8903 9.52841 55.8617 8.29362 53.6498C6.85859 51.0839 5.34569 48.5623 3.86617 46.0185C3.77717 45.8637 3.66593 45.7199 3.56581 45.5651C3.55469 45.5429 3.55469 45.5098 3.55469 45.4655Z" fill="url(#paint0_linear_339:8872)"/>
<path d="M54.6782 56.7903C45.078 40.256 35.5 23.7549 25.8887 7.20956C25.9999 7.17638 26.0667 7.12108 26.1445 7.12108C29.4039 7.12108 32.6633 7.0879 35.9116 7.1432C38.1031 7.18744 39.7272 8.27129 40.8063 10.1514C43.9989 15.6813 47.2027 21.2001 50.3954 26.73C53.4657 32.0276 56.5471 37.3252 59.5951 42.6339C60.6297 44.4255 60.7632 46.3057 59.7286 48.1527C58.1267 50.9839 56.4803 53.7931 54.8451 56.6023C54.8117 56.6576 54.7561 56.7018 54.6782 56.7903Z" fill="url(#paint1_linear_339:8872)"/>
<path d="M21.1489 15.1614C25.4762 22.6046 29.7368 29.9482 34.0419 37.3693C25.4206 37.3693 16.8883 37.3693 8.25586 37.3693C12.5498 29.9593 16.8215 22.6046 21.1489 15.1614Z" fill="url(#paint2_linear_339:8872)"/>
<defs>
<linearGradient id="paint0_linear_339:8872" x1="3.55469" y1="45.4545" x2="42.8397" y2="62.629" gradientUnits="userSpaceOnUse">
<stop stop-color="#0882F2"/>
<stop offset="1" stop-color="#1FC6EC"/>
</linearGradient>
<linearGradient id="paint1_linear_339:8872" x1="25.8887" y1="7.11121" x2="64.3083" y2="10.3077" gradientUnits="userSpaceOnUse">
<stop stop-color="#0882F2"/>
<stop offset="1" stop-color="#1FC6EC"/>
</linearGradient>
<linearGradient id="paint2_linear_339:8872" x1="8.25586" y1="15.1614" x2="36.5801" y2="19.0955" gradientUnits="userSpaceOnUse">
<stop stop-color="#0882F2"/>
<stop offset="1" stop-color="#1FC6EC"/>
</linearGradient>
</defs>
</svg>
