<svg width="64" height="64" viewBox="0 0 64 64" fill="none" xmlns="http://www.w3.org/2000/svg">
<g clip-path="url(#clip0_339:8869)">
<path d="M60.8991 34.5479C60.331 32.0336 59.6768 29.5193 58.9709 27.0419C58.1274 24.0469 56.9395 21.1813 55.6999 18.3527C55.1146 17.0031 54.3399 15.9123 53.1176 15.1358C50.8968 13.7122 48.5898 12.5105 46.1108 11.7341C44.372 11.1979 42.5988 10.8282 40.7911 10.7912C40.3435 10.7912 39.9648 11.1055 39.8959 11.4752C42.0134 12.3811 44.1482 13.2131 46.2313 14.1744C48.5382 15.2467 51.6542 17.3728 52.0158 18.0384C38.5014 11.3458 24.9699 11.2534 11.3866 17.7241C13.1599 16.0232 15.243 14.803 17.4121 13.7492C19.5813 12.6769 21.871 11.9374 24.2296 11.2719C23.9541 10.8282 23.6959 10.6433 23.2827 10.6803C21.1824 10.8282 19.1337 11.2349 17.1367 11.9374C14.4683 12.8803 11.972 14.2299 9.66507 16.0047C9.42405 16.1896 9.20024 16.4299 9.06252 16.7073C7.66804 19.4804 6.49738 22.3645 5.51608 25.3225C4.63808 27.9478 3.86337 30.5915 3.32968 33.3092C2.95093 35.2874 2.50332 37.2656 2.27952 39.2808C2.00407 41.7027 1.93521 44.1615 1.76305 46.6019C1.72862 47.0456 1.86634 47.3969 2.10736 47.7481C4.31098 50.8171 7.25487 52.7583 10.6292 53.96C12.6606 54.681 14.7437 55.0138 16.8785 55.1063C17.2056 55.1247 17.4121 55.0138 17.6015 54.755C18.4967 53.5533 19.4092 52.3701 20.3044 51.1684C20.4077 51.039 20.4938 50.9095 20.6143 50.7432C19.9945 50.5028 19.4264 50.2995 18.8755 50.0591C16.3448 48.9868 14.0895 47.4523 12.2646 45.2523C12.1441 45.1229 12.0753 44.9565 11.9892 44.7901C12.0236 44.7531 12.0408 44.7346 12.0753 44.7162C12.6778 45.0489 13.2632 45.4372 13.9001 45.696C16.5341 46.7868 19.1854 47.8776 21.8538 48.8759C23.7992 49.6154 25.8479 49.9667 27.8965 50.2255C30.565 50.5583 33.2506 50.5213 35.9191 50.2255C36.9348 50.1146 37.9333 49.9667 38.9318 49.7633C39.8787 49.5784 40.8428 49.3196 41.7724 49.0423C43.098 48.6171 44.4581 48.2473 45.7148 47.6557C47.643 46.7313 49.5023 45.6405 51.396 44.6237C51.4649 44.5867 51.5509 44.5683 51.6887 44.5313C51.637 44.6607 51.637 44.7346 51.6026 44.7716C51.5165 44.901 51.4132 45.012 51.3271 45.1229C49.1235 47.6742 46.3518 49.2087 43.3218 50.2625C42.8742 50.4104 42.8398 50.4843 43.1325 50.8726C44.0277 52.0928 44.9573 53.276 45.8525 54.4962C46.0247 54.7365 46.2313 54.8289 46.5067 54.8105C48.5382 54.718 50.518 54.4037 52.4634 53.7936C54.3399 53.202 56.0959 52.3331 57.7486 51.2238C59.2808 50.1885 60.6236 48.8944 61.8804 47.4893C62.1042 47.249 62.1903 47.0271 62.1903 46.6759C62.1903 42.5716 61.7771 38.5228 60.8991 34.5479ZM27.6555 36.0269C27.6383 38.7816 26.0028 41.148 23.5582 41.7396C21.1652 42.3128 18.9099 41.222 17.7048 38.7446C16.3103 35.8975 17.3089 32.3664 19.9256 30.7949C22.6285 29.168 26.1922 30.5546 27.2596 33.679C27.5178 34.4185 27.6211 35.2135 27.7932 35.99C27.7244 36.0084 27.6899 36.0269 27.6555 36.0269ZM46.6272 36.1563C46.5412 39.3732 44.0965 41.9615 41.2215 41.8691C38.312 41.8506 35.9363 39.0589 36.0224 35.8051C36.1084 32.7731 38.3465 30.0369 41.4797 30.0924C44.3548 30.1663 46.7133 32.958 46.6272 36.1563Z" fill="url(#paint0_linear_339:8869)"/>
</g>
<defs>
<linearGradient id="paint0_linear_339:8869" x1="1.75781" y1="10.6757" x2="67.6745" y2="21.4001" gradientUnits="userSpaceOnUse">
<stop stop-color="#0882F2"/>
<stop offset="1" stop-color="#1FC6EC"/>
</linearGradient>
<clipPath id="clip0_339:8869">
<rect width="60.4444" height="44.4444" fill="white" transform="translate(1.77734 10.6666)"/>
</clipPath>
</defs>
</svg>
