<svg width="64" height="64" viewBox="0 0 64 64" fill="none" xmlns="http://www.w3.org/2000/svg">
<path fill-rule="evenodd" clip-rule="evenodd" d="M7.11133 20.3852C7.11133 13.0541 13.0543 7.11108 20.3854 7.11108H43.615C50.9461 7.11108 56.8891 13.0541 56.8891 20.3852V43.6148C56.8891 50.9459 50.9461 56.8889 43.615 56.8889H20.3854C13.0543 56.8889 7.11133 50.9459 7.11133 43.6148V20.3852ZM32.0016 41.1258C37.0417 41.1258 41.1276 37.04 41.1276 31.9999C41.1276 26.9598 37.0417 22.8739 32.0016 22.8739C26.9615 22.8739 22.8757 26.9598 22.8757 31.9999C22.8757 37.04 26.9615 41.1258 32.0016 41.1258ZM32.0016 45.2739C39.3327 45.2739 45.2757 39.3309 45.2757 31.9999C45.2757 24.6688 39.3327 18.7258 32.0016 18.7258C24.6706 18.7258 18.7276 24.6688 18.7276 31.9999C18.7276 39.3309 24.6706 45.2739 32.0016 45.2739ZM47.3469 19.5558C48.4924 19.5558 49.421 18.6272 49.421 17.4817C49.421 16.3362 48.4924 15.4076 47.3469 15.4076C46.2015 15.4076 45.2729 16.3362 45.2729 17.4817C45.2729 18.6272 46.2015 19.5558 47.3469 19.5558Z" fill="url(#paint0_linear_339:8868)"/>
<defs>
<linearGradient id="paint0_linear_339:8868" x1="7.11133" y1="7.11108" x2="62.0574" y2="13.6839" gradientUnits="userSpaceOnUse">
<stop stop-color="#0882F2"/>
<stop offset="1" stop-color="#1FC6EC"/>
</linearGradient>
</defs>
</svg>
