<svg width="64" height="64" viewBox="0 0 64 64" fill="none" xmlns="http://www.w3.org/2000/svg">
<path fill-rule="evenodd" clip-rule="evenodd" d="M5.33398 14.2434C5.33398 10.7368 8.17662 7.89417 11.6832 7.89417C15.1898 7.89417 18.0324 10.7368 18.0324 14.2434C18.0324 17.7499 15.1898 20.5926 11.6832 20.5926C8.17662 20.5926 5.33398 17.7499 5.33398 14.2434ZM30.4991 26.9951C33.5973 23.9764 37.7926 22.2861 42.1603 22.2861C46.5279 22.2861 50.7232 23.9764 53.8214 26.9951C56.9207 30.015 58.6682 34.118 58.6682 38.4033V55.7253C58.6682 56.4266 58.0997 56.9951 57.3983 56.9951H47.2396C46.5383 56.9951 45.9698 56.4266 45.9698 55.7253V38.4033C45.9698 37.4383 45.5766 36.506 44.8657 35.8133C44.1537 35.1195 43.1811 34.724 42.1603 34.724C41.1394 34.724 40.1668 35.1195 39.4548 35.8133C38.7439 36.506 38.3507 37.4383 38.3507 38.4033V55.7253C38.3507 56.4266 37.7822 56.9951 37.0809 56.9951H26.9222C26.2208 56.9951 25.6523 56.4266 25.6523 55.7253V38.4033C25.6523 34.118 27.3998 30.015 30.4991 26.9951ZM5.33398 26.9418C5.33398 26.2405 5.90251 25.672 6.60383 25.672H16.7626C17.4639 25.672 18.0324 26.2405 18.0324 26.9418V55.7249C18.0324 56.4262 17.4639 56.9947 16.7626 56.9947H6.60383C5.90251 56.9947 5.33398 56.4262 5.33398 55.7249V26.9418Z" fill="url(#paint0_linear_339:8867)"/>
<defs>
<linearGradient id="paint0_linear_339:8867" x1="5.33398" y1="7.89417" x2="64.0567" y2="15.5243" gradientUnits="userSpaceOnUse">
<stop stop-color="#0882F2"/>
<stop offset="1" stop-color="#1FC6EC"/>
</linearGradient>
</defs>
</svg>
