<svg width="64" height="64" viewBox="0 0 64 64" fill="none" xmlns="http://www.w3.org/2000/svg">
<path d="M60.4436 11.848C60.2374 12.8049 60.0312 13.7618 59.8456 14.7187C59.66 15.6556 59.495 16.5925 59.2888 17.5095C59.0826 18.4066 58.8351 19.3037 58.6083 20.2207C58.5052 20.6194 58.4433 21.0181 58.3608 21.4168C58.1753 22.3537 58.0309 23.2906 57.8247 24.2076C57.6185 25.1246 57.3504 26.0416 57.1442 26.9586C57.0205 27.5368 56.938 28.1149 56.8143 28.693C56.608 29.59 56.3606 30.507 56.1544 31.4041C56.0513 31.8028 55.9894 32.2015 55.9069 32.6002C55.8038 33.1584 55.7213 33.7365 55.577 34.2947C55.3708 35.2117 55.1233 36.1287 54.9171 37.0457C54.8346 37.4045 54.7728 37.7833 54.6903 38.1421C54.5872 38.7003 54.4635 39.2584 54.3604 39.8166C54.2366 40.3549 54.1129 40.8931 53.9892 41.4313C53.8861 41.8699 53.7417 42.3085 53.6592 42.767C53.4736 43.7239 53.3293 44.7007 53.1231 45.6575C52.9375 46.5546 52.6694 47.4118 52.4426 48.3089C52.3189 48.7873 52.2776 49.2657 52.1745 49.7641C52.0508 50.3821 51.8858 51.0001 51.7415 51.618C51.6384 52.0566 51.5765 52.5151 51.4528 52.9537C51.1435 54.0302 50.4836 54.8874 49.3082 55.0867C48.7927 55.1665 48.1534 55.0468 47.6997 54.7877C46.3594 53.9903 45.0602 53.0733 43.7817 52.1962C42.5651 51.3589 41.3691 50.5017 40.173 49.6445C38.812 48.6677 37.4717 47.6909 36.1313 46.7141C35.4508 46.2356 34.7909 45.7373 34.1104 45.2788C34.0073 45.219 33.7186 45.2389 33.6155 45.3386C32.337 46.4948 31.0791 47.651 29.8212 48.8272C28.8314 49.7442 27.8416 50.701 26.8106 51.5981C26.1507 52.1762 25.3258 52.3357 24.4598 52.2759C23.9442 52.236 23.573 51.8971 23.3875 51.4785C23.0575 50.721 22.8307 49.9236 22.5626 49.1262C22.3564 48.4883 22.1296 47.8703 21.9234 47.2324C21.6347 46.3553 21.3666 45.4582 21.0779 44.581C20.8923 44.0029 20.6861 43.4049 20.4799 42.8268C20.2737 42.1889 20.0468 41.531 19.8406 40.8931C19.6344 40.315 19.4282 39.7369 19.2426 39.1388C19.0364 38.481 18.7889 37.8431 18.624 37.1852C18.4178 36.2283 17.6754 35.5306 16.6856 35.3512C16.0257 35.2316 15.3865 34.9924 14.7472 34.793C14.3967 34.6934 14.0461 34.5738 13.7162 34.4541C12.6851 34.1352 11.654 33.7963 10.623 33.4773C9.44759 33.1385 8.27218 32.8394 7.1174 32.4607C6.10697 32.1218 5.13778 31.7231 4.16858 31.3244C3.36436 30.9855 3.36436 29.7296 4.0861 29.2711C4.89032 28.7528 5.67392 28.2145 6.6225 27.9355C7.57107 27.6364 8.45777 27.1779 9.38572 26.839C10.5817 26.4005 11.7984 26.0018 12.9944 25.5632C13.9017 25.2243 14.7885 24.8057 15.6958 24.4668C16.4381 24.1877 17.2011 23.9485 17.9641 23.6893C18.6858 23.4302 19.387 23.1511 20.1087 22.872C20.9129 22.573 21.7378 22.2939 22.542 21.9949C23.4287 21.656 24.3154 21.3171 25.2021 20.9782C26.1713 20.5994 27.1199 20.2406 28.0891 19.8618C29.3057 19.4033 30.5017 18.9249 31.739 18.4664C32.4814 18.1873 33.2237 17.968 33.9661 17.7089C34.7291 17.4298 35.4508 17.0909 36.2138 16.8118C37.1623 16.453 38.1315 16.154 39.0801 15.8151C39.7812 15.5559 40.4823 15.2968 41.1835 15.0376C41.9877 14.7386 42.7919 14.4595 43.5961 14.1405C44.4828 13.8016 45.3695 13.4628 46.2563 13.1239C46.9986 12.8448 47.741 12.5458 48.4833 12.2667C49.2463 11.9876 50.0093 11.7085 50.7723 11.4095C51.7209 11.0506 52.6694 10.7117 53.6386 10.3529C54.381 10.0738 55.144 9.77481 55.8863 9.49572C56.4843 9.27644 57.0823 9.01729 57.701 8.91761C58.8558 8.71826 60.3198 9.57546 60.3405 10.931C60.3405 11.2301 60.3405 11.5291 60.3405 11.8281C60.3611 11.8281 60.4023 11.848 60.4436 11.848ZM49.6587 17.2504C49.6381 17.2105 49.6175 17.1706 49.5969 17.1308C49.0607 17.37 48.504 17.5693 47.9884 17.8484C47.1636 18.3269 46.4006 18.8651 45.5964 19.3635C42.8744 21.0181 40.1318 22.6727 37.3892 24.3272C36.0901 25.1246 34.8115 25.942 33.4918 26.7394C32.0483 27.6165 30.6048 28.4737 29.1614 29.3508C27.9653 30.0685 26.7899 30.8061 25.5939 31.5237C23.9442 32.5205 22.2945 33.4973 20.6448 34.494C20.1499 34.793 19.985 35.2316 20.1499 35.6502C20.3768 36.2483 20.6036 36.8264 20.8098 37.4244C21.2222 38.6205 21.6347 39.8166 22.0265 41.0127C22.4389 42.2487 22.8513 43.4647 23.2637 44.7007C23.6761 45.9366 24.0886 47.1726 24.501 48.4085C24.5422 48.5082 24.666 48.588 24.7691 48.6876C24.8309 48.568 24.9547 48.4683 24.9547 48.3288C25.1196 46.7938 25.3052 45.2588 25.4496 43.7039C25.5527 42.5676 25.6352 41.4313 25.697 40.2951C25.7176 39.7169 25.9651 39.2784 26.3981 38.8996C26.9137 38.4611 27.4292 38.0225 27.9447 37.5839C29.9243 35.8297 31.8833 34.0754 33.8836 32.3411C35.492 30.9456 37.1211 29.5701 38.7296 28.1747C40.5442 26.5998 42.3382 25.005 44.1529 23.4102C45.782 21.9749 47.411 20.5795 49.0401 19.1243C49.4938 18.7256 49.9062 18.2671 50.298 17.8086C50.5454 17.5095 50.4217 17.2902 50.0093 17.2504C49.9062 17.2504 49.7825 17.2504 49.6587 17.2504Z" fill="url(#paint0_linear_339:8870)"/>
<defs>
<linearGradient id="paint0_linear_339:8870" x1="3.55469" y1="8.88892" x2="65.8974" y2="18.0675" gradientUnits="userSpaceOnUse">
<stop stop-color="#0882F2"/>
<stop offset="1" stop-color="#1FC6EC"/>
</linearGradient>
</defs>
</svg>
