<svg width="64" height="64" viewBox="0 0 64 64" fill="none" xmlns="http://www.w3.org/2000/svg">
<path d="M60.4436 8.91482C57.9673 10.6548 55.2256 11.9856 52.324 12.856C50.7666 11.0722 48.6969 9.80788 46.3947 9.23405C44.0925 8.66021 41.6689 8.80456 39.4518 9.64756C37.2346 10.4906 35.3309 11.9916 33.998 13.9475C32.665 15.9035 31.9673 18.2201 31.9991 20.5839V23.1599C27.4548 23.2773 22.9519 22.2733 18.8914 20.2373C14.831 18.2014 11.3389 15.1966 8.7264 11.4908C8.7264 11.4908 -1.61703 34.6744 21.6557 44.9783C16.3302 48.5794 9.98612 50.385 3.55469 50.1302C26.8274 63.01 55.2719 50.1302 55.2719 20.5066C55.2695 19.7891 55.2002 19.0734 55.065 18.3686C57.7041 15.7759 59.5665 12.5024 60.4436 8.91482Z" fill="url(#paint0_linear_339:8866)"/>
<defs>
<linearGradient id="paint0_linear_339:8866" x1="3.55469" y1="8.88892" x2="65.8974" y2="18.0675" gradientUnits="userSpaceOnUse">
<stop stop-color="#0882F2"/>
<stop offset="1" stop-color="#1FC6EC"/>
</linearGradient>
</defs>
</svg>
